<svg xmlns="http://www.w3.org/2000/svg" width="20.793" height="19.841" viewBox="0 0 20.793 19.841">
  <path id="Path_843" data-name="Path 843" d="M20.723,218.17a1.43,1.43,0,0,0-1.155-.972l-5.459-.793-2.439-4.929a1.488,1.488,0,0,0-2.562,0l-2.439,4.929-5.446.793a1.429,1.429,0,0,0-.792,2.436l3.95,3.85-.932,5.431a1.429,1.429,0,0,0,2.075,1.506l4.864-2.565,4.879,2.565a1.425,1.425,0,0,0,.664.164,1.452,1.452,0,0,0,.842-.271,1.434,1.434,0,0,0,.569-1.4l-.93-5.431,3.95-3.85A1.426,1.426,0,0,0,20.723,218.17Z" transform="translate(0 -210.746)" fill="#ff9823"/>
</svg>
